# xmcd CD database file
#
# Track frame offsets:
#	150
#	15487
#	29607
#	43350
#	59085
#	77042
#	94565
#	113930
#	128565
#	143250
#	158967
#	174662
#	192082
#	206402
#	226212
#	241385
#	263772
#	280937
#	300487
#	317895
#
# Disc length: 4470 seconds
#
# Revision: 5
# Processed by: cddbd v1.5.2PL0 Copyright (c) Steve Scherf et al.
# Submitted via: CDex 1.70beta2
#
DISCID=0f117414
DTITLE=Reba McEntire - Moments and Memories - The Best Of
DYEAR=1999
DGENRE=Country
TTITLE0=Whoever's In New England
TTITLE1=Little Rock
TTITLE2=The Fear Of Being Alone
TTITLE3=I'd Rather Ride Around With You
TTITLE4=You Lie
TTITLE5=Is There Life Out There
TTITLE6=For My Broken Heart
TTITLE7=Walk On
TTITLE8=The Greatest Man I Ever Knew
TTITLE9=Why Haven't I Heard From You
TTITLE10=And Still
TTITLE11=The Heart Is A Lonely Hunter
TTITLE12=It's Your Call
TTITLE13=She Thinks His Name Was John
TTITLE14=The Heart Won't Lie
TTITLE15=Fancy
TTITLE16=Rumor Has It
TTITLE17=Does He Love You
TTITLE18=Till You Love Me
TTITLE19=Forever Love
EXTD=YEAR: 1999
EXTT0=
EXTT1=
EXTT2=
EXTT3=
EXTT4=
EXTT5=
EXTT6=
EXTT7=
EXTT8=
EXTT9=
EXTT10=
EXTT11=
EXTT12=
EXTT13=
EXTT14=
EXTT15=
EXTT16=
EXTT17=
EXTT18=
EXTT19=
PLAYORDER=
